<svg width="1440" height="492" viewBox="0 0 1440 492" fill="none" xmlns="http://www.w3.org/2000/svg">
<g clip-path="url(#clip0_121_54779)">
<rect width="1440" height="492" fill="#090E34"/>
<ellipse cx="55" cy="350" rx="364" ry="364" transform="rotate(-45 55 350)" fill="url(#paint0_linear_121_54779)"/>
<ellipse cx="1312.34" cy="471.965" rx="199.017" ry="199.017" transform="rotate(-75 1312.34 471.965)" fill="url(#paint1_linear_121_54779)"/>
<path d="M1380.93 41.1952C1381.97 41.1952 1382.8 42.0314 1382.8 43.0629C1382.8 44.0943 1381.97 44.9305 1380.93 44.9305C1379.9 44.9305 1379.07 44.0943 1379.07 43.0629C1379.07 42.0314 1379.9 41.1952 1380.93 41.1952Z" fill="white" fill-opacity="0.3"/>
<path d="M1380.93 24.7607C1381.97 24.7607 1382.8 25.5969 1382.8 26.6283C1382.8 27.6598 1381.97 28.496 1380.93 28.496C1379.9 28.496 1379.07 27.6598 1379.07 26.6283C1379.07 25.5969 1379.9 24.7607 1380.93 24.7607Z" fill="white" fill-opacity="0.3"/>
<path d="M1380.93 8.32555C1381.97 8.32555 1382.8 9.16171 1382.8 10.1932C1382.8 11.2246 1381.97 12.0608 1380.93 12.0608C1379.9 12.0608 1379.07 11.2246 1379.07 10.1932C1379.07 9.16171 1379.9 8.32555 1380.93 8.32555Z" fill="white" fill-opacity="0.3"/>
<path d="M1396.9 41.1959C1397.93 41.1959 1398.77 42.032 1398.77 43.0635C1398.77 44.095 1397.93 44.9312 1396.9 44.9312C1395.87 44.9312 1395.04 44.095 1395.04 43.0635C1395.04 42.032 1395.87 41.1959 1396.9 41.1959Z" fill="white" fill-opacity="0.3"/>
<path d="M1413.33 41.1959C1414.36 41.1959 1415.2 42.032 1415.2 43.0635C1415.2 44.095 1414.36 44.9312 1413.33 44.9312C1412.3 44.9312 1411.46 44.095 1411.46 43.0635C1411.46 42.032 1412.3 41.1959 1413.33 41.1959Z" fill="white" fill-opacity="0.3"/>
<path d="M1429.76 41.1959C1430.79 41.1959 1431.62 42.032 1431.62 43.0635C1431.62 44.095 1430.79 44.9312 1429.76 44.9312C1428.73 44.9312 1427.89 44.095 1427.89 43.0635C1427.89 42.032 1428.73 41.1959 1429.76 41.1959Z" fill="white" fill-opacity="0.3"/>
<path d="M1396.9 24.7607C1397.93 24.7607 1398.77 25.5969 1398.77 26.6283C1398.77 27.6598 1397.93 28.496 1396.9 28.496C1395.87 28.496 1395.04 27.6598 1395.04 26.6283C1395.04 25.5969 1395.87 24.7607 1396.9 24.7607Z" fill="white" fill-opacity="0.3"/>
<path d="M1413.33 24.7607C1414.36 24.7607 1415.2 25.5969 1415.2 26.6283C1415.2 27.6598 1414.36 28.496 1413.33 28.496C1412.3 28.496 1411.46 27.6598 1411.46 26.6283C1411.46 25.5969 1412.3 24.7607 1413.33 24.7607Z" fill="white" fill-opacity="0.3"/>
<path d="M1429.76 24.7607C1430.79 24.7607 1431.62 25.5969 1431.62 26.6283C1431.62 27.6598 1430.79 28.496 1429.76 28.496C1428.73 28.496 1427.89 27.6598 1427.89 26.6283C1427.89 25.5969 1428.73 24.7607 1429.76 24.7607Z" fill="white" fill-opacity="0.3"/>
<path d="M1396.9 8.32521C1397.93 8.32521 1398.77 9.16139 1398.77 10.1929C1398.77 11.2243 1397.93 12.0605 1396.9 12.0605C1395.87 12.0605 1395.04 11.2243 1395.04 10.1929C1395.04 9.16139 1395.87 8.32521 1396.9 8.32521Z" fill="white" fill-opacity="0.3"/>
<path d="M1413.33 8.3252C1414.36 8.3252 1415.2 9.16139 1415.2 10.1929C1415.2 11.2243 1414.36 12.0605 1413.33 12.0605C1412.3 12.0605 1411.46 11.2243 1411.46 10.1929C1411.46 9.16139 1412.3 8.3252 1413.33 8.3252Z" fill="white" fill-opacity="0.3"/>
<path d="M1429.76 8.3252C1430.79 8.3252 1431.62 9.16139 1431.62 10.1929C1431.62 11.2243 1430.79 12.0605 1429.76 12.0605C1428.73 12.0605 1427.89 11.2243 1427.89 10.1929C1427.89 9.16139 1428.73 8.3252 1429.76 8.3252Z" fill="white" fill-opacity="0.3"/>
<path d="M1380.93 90.2028C1381.97 90.2028 1382.8 91.039 1382.8 92.0704C1382.8 93.1019 1381.97 93.9381 1380.93 93.9381C1379.9 93.9381 1379.07 93.1019 1379.07 92.0704C1379.07 91.039 1379.9 90.2028 1380.93 90.2028Z" fill="white" fill-opacity="0.3"/>
<path d="M1380.93 73.7676C1381.97 73.7676 1382.8 74.6038 1382.8 75.6353C1382.8 76.6667 1381.97 77.5029 1380.93 77.5029C1379.9 77.5029 1379.07 76.6667 1379.07 75.6353C1379.07 74.6038 1379.9 73.7676 1380.93 73.7676Z" fill="white" fill-opacity="0.3"/>
<path d="M1380.93 106.265C1381.97 106.265 1382.8 107.101 1382.8 108.133C1382.8 109.164 1381.97 110 1380.93 110C1379.9 110 1379.07 109.164 1379.07 108.133C1379.07 107.101 1379.9 106.265 1380.93 106.265Z" fill="white" fill-opacity="0.3"/>
<path d="M1380.93 57.3328C1381.97 57.3328 1382.8 58.169 1382.8 59.2004C1382.8 60.2319 1381.97 61.0681 1380.93 61.0681C1379.9 61.0681 1379.07 60.2319 1379.07 59.2004C1379.07 58.169 1379.9 57.3328 1380.93 57.3328Z" fill="white" fill-opacity="0.3"/>
<path d="M1396.9 90.2031C1397.93 90.2031 1398.77 91.0393 1398.77 92.0708C1398.77 93.1022 1397.93 93.9384 1396.9 93.9384C1395.87 93.9384 1395.04 93.1022 1395.04 92.0708C1395.04 91.0393 1395.87 90.2031 1396.9 90.2031Z" fill="white" fill-opacity="0.3"/>
<path d="M1413.33 90.2031C1414.36 90.2031 1415.2 91.0393 1415.2 92.0708C1415.2 93.1022 1414.36 93.9384 1413.33 93.9384C1412.3 93.9384 1411.46 93.1022 1411.46 92.0708C1411.46 91.0393 1412.3 90.2031 1413.33 90.2031Z" fill="white" fill-opacity="0.3"/>
<path d="M1429.76 90.2031C1430.79 90.2031 1431.62 91.0393 1431.62 92.0708C1431.62 93.1022 1430.79 93.9384 1429.76 93.9384C1428.73 93.9384 1427.89 93.1022 1427.89 92.0708C1427.89 91.0393 1428.73 90.2031 1429.76 90.2031Z" fill="white" fill-opacity="0.3"/>
<path d="M1396.9 73.7676C1397.93 73.7676 1398.77 74.6038 1398.77 75.6353C1398.77 76.6667 1397.93 77.5029 1396.9 77.5029C1395.87 77.5029 1395.04 76.6667 1395.04 75.6353C1395.04 74.6038 1395.87 73.7676 1396.9 73.7676Z" fill="white" fill-opacity="0.3"/>
<path d="M1413.33 73.768C1414.36 73.768 1415.2 74.6041 1415.2 75.6356C1415.2 76.6671 1414.36 77.5032 1413.33 77.5032C1412.3 77.5032 1411.46 76.6671 1411.46 75.6356C1411.46 74.6041 1412.3 73.768 1413.33 73.768Z" fill="white" fill-opacity="0.3"/>
<path d="M1429.76 73.768C1430.79 73.768 1431.62 74.6041 1431.62 75.6356C1431.62 76.6671 1430.79 77.5032 1429.76 77.5032C1428.73 77.5032 1427.89 76.6671 1427.89 75.6356C1427.89 74.6041 1428.73 73.768 1429.76 73.768Z" fill="white" fill-opacity="0.3"/>
<path d="M1396.9 106.265C1397.93 106.265 1398.77 107.101 1398.77 108.132C1398.77 109.164 1397.93 110 1396.9 110C1395.87 110 1395.04 109.164 1395.04 108.132C1395.04 107.101 1395.87 106.265 1396.9 106.265Z" fill="white" fill-opacity="0.3"/>
<path d="M1396.9 57.3325C1397.93 57.3325 1398.77 58.1686 1398.77 59.2001C1398.77 60.2315 1397.93 61.0677 1396.9 61.0677C1395.87 61.0677 1395.04 60.2315 1395.04 59.2001C1395.04 58.1686 1395.87 57.3325 1396.9 57.3325Z" fill="white" fill-opacity="0.3"/>
<path d="M1413.33 106.265C1414.36 106.265 1415.2 107.101 1415.2 108.132C1415.2 109.164 1414.36 110 1413.33 110C1412.3 110 1411.46 109.164 1411.46 108.132C1411.46 107.101 1412.3 106.265 1413.33 106.265Z" fill="white" fill-opacity="0.3"/>
<path d="M1413.33 57.3325C1414.36 57.3325 1415.2 58.1686 1415.2 59.2001C1415.2 60.2315 1414.36 61.0677 1413.33 61.0677C1412.3 61.0677 1411.46 60.2315 1411.46 59.2001C1411.46 58.1686 1412.3 57.3325 1413.33 57.3325Z" fill="white" fill-opacity="0.3"/>
<path d="M1429.76 106.265C1430.79 106.265 1431.62 107.101 1431.62 108.132C1431.62 109.164 1430.79 110 1429.76 110C1428.73 110 1427.89 109.164 1427.89 108.132C1427.89 107.101 1428.73 106.265 1429.76 106.265Z" fill="white" fill-opacity="0.3"/>
<path d="M1429.76 57.3325C1430.79 57.3325 1431.62 58.1686 1431.62 59.2001C1431.62 60.2315 1430.79 61.0677 1429.76 61.0677C1428.73 61.0677 1427.89 60.2315 1427.89 59.2001C1427.89 58.1686 1428.73 57.3325 1429.76 57.3325Z" fill="white" fill-opacity="0.3"/>
</g>
<defs>
<linearGradient id="paint0_linear_121_54779" x1="55" y1="-14" x2="55" y2="714" gradientUnits="userSpaceOnUse">
<stop stop-color="#13C296" stop-opacity="0.4"/>
<stop offset="1" stop-opacity="0"/>
</linearGradient>
<linearGradient id="paint1_linear_121_54779" x1="1312.34" y1="272.948" x2="1312.34" y2="670.982" gradientUnits="userSpaceOnUse">
<stop stop-color="#3056D3" stop-opacity="0.32"/>
<stop offset="1" stop-opacity="0"/>
</linearGradient>
<clipPath id="clip0_121_54779">
<rect width="1440" height="492" fill="white"/>
</clipPath>
</defs>
</svg>
